<?xml version="1.0" standalone="no"?>
<!DOCTYPE svg PUBLIC "-//W3C//DTD SVG 20010904//EN"
 "http://www.w3.org/TR/2001/REC-SVG-20010904/DTD/svg10.dtd">
<svg version="1.0" xmlns="http://www.w3.org/2000/svg"
 width="417.000000pt" height="417.000000pt" viewBox="0 0 417.000000 417.000000"
 preserveAspectRatio="xMidYMid meet">
<metadata>
Created by potrace 1.11, written by Peter Selinger 2001-2013
</metadata>
<g transform="translate(0.000000,417.000000) scale(0.100000,-0.100000)"
fill="#000000" stroke="none">
<path d="M1800 4013 c-634 -97 -1174 -490 -1460 -1062 -139 -278 -200 -544
-200 -871 0 -327 60 -590 196 -864 290 -582 838 -980 1475 -1071 135 -19 423
-19 558 0 556 79 1046 392 1358 866 155 237 258 509 298 790 19 135 19 423 0
558 -90 632 -489 1185 -1060 1469 -190 94 -393 158 -598 187 -132 19 -440 18
-567 -2z"/>
</g>
</svg>
